<svg xmlns="http://www.w3.org/2000/svg" xmlns:xlink="http://www.w3.org/1999/xlink" width="114.479" height="62.855" viewBox="0 0 114.479 62.855">
  <defs>
    <clipPath id="clip-path">
      <path id="Path_396" data-name="Path 396" d="M1500.5,1663.667v14.5L1515,1687s2.167,10.667,2,11.167-4.833,8-5.333,8.167-10,3.333-11.167,3.5-9.333-.667-9.333-.667l-7.833-5.333-9.5,6s7.667,13.333,9.5,13.333,30.833,3.667,31.667,3.333,13.333-7,14-9.833a145.163,145.163,0,0,0,1.667-16c0-2.167-3.167-16.166-3.833-17.333s-5.667-12.167-6.167-12.667-7.375-3.375-9.833-4.5S1500.5,1663.667,1500.5,1663.667Z" transform="translate(-157 1857) rotate(-90)" fill="none" stroke="#707070" stroke-width="1"/>
    </clipPath>
  </defs>
  <g id="CAROUSEL" transform="translate(-1416.188 -1663.667)">
    <g id="NEXT_BUTTON" data-name="NEXT BUTTON" transform="translate(1857 157) rotate(90)">
      <g id="Background" transform="translate(1513 332)" fill="none" opacity="0.1">
        <path d="M24.5,0A24.5,24.5,0,1,1,0,24.5,24.5,24.5,0,0,1,24.5,0Z" stroke="none"/>
        <path d="M 24.5 3 C 21.59620094299316 3 18.78083992004395 3.568038940429688 16.13214874267578 4.688339233398438 C 13.57229995727539 5.771068572998047 11.27268981933594 7.321708679199219 9.297199249267578 9.297199249267578 C 7.321708679199219 11.27268981933594 5.771068572998047 13.57229995727539 4.688339233398438 16.13214874267578 C 3.568038940429688 18.78083992004395 3 21.59620094299316 3 24.5 C 3 27.40379905700684 3.568038940429688 30.21915054321289 4.688339233398438 32.86785125732422 C 5.771068572998047 35.42768859863281 7.321708679199219 37.72729873657227 9.297199249267578 39.70278930664062 C 11.27268981933594 41.67829132080078 13.57229995727539 43.22893142700195 16.13214874267578 44.31164932250977 C 18.78083992004395 45.43196105957031 21.59620094299316 46 24.5 46 C 27.40379905700684 46 30.21915054321289 45.43196105957031 32.86785125732422 44.31164932250977 C 35.42768859863281 43.22893142700195 37.72729873657227 41.67829132080078 39.70278930664062 39.70278930664062 C 41.67829132080078 37.72729873657227 43.22893142700195 35.42768859863281 44.31164932250977 32.86785125732422 C 45.43196105957031 30.21915054321289 46 27.40379905700684 46 24.5 C 46 21.59620094299316 45.43196105957031 18.78083992004395 44.31164932250977 16.13214874267578 C 43.22893142700195 13.57229995727539 41.67829132080078 11.27268981933594 39.70278930664062 9.297199249267578 C 37.72729873657227 7.321708679199219 35.42768859863281 5.771068572998047 32.86785125732422 4.688339233398438 C 30.21915054321289 3.568038940429688 27.40379905700684 3 24.5 3 M 24.5 0 C 38.03096771240234 0 49 10.96902084350586 49 24.5 C 49 38.03096771240234 38.03096771240234 49 24.5 49 C 10.96902084350586 49 0 38.03096771240234 0 24.5 C 0 10.96902084350586 10.96902084350586 0 24.5 0 Z" stroke="none" fill="#215891"/>
      </g>
      <g id="Mask_Group_54" data-name="Mask Group 54" clip-path="url(#clip-path)">
        <g id="Background-2" data-name="Background" transform="translate(1513 332)" fill="none">
          <path d="M24.5,0A24.5,24.5,0,1,1,0,24.5,24.5,24.5,0,0,1,24.5,0Z" stroke="none"/>
          <path d="M 24.5 3 C 21.59620094299316 3 18.78083992004395 3.568038940429688 16.13214874267578 4.688339233398438 C 13.57229995727539 5.771068572998047 11.27268981933594 7.321708679199219 9.297199249267578 9.297199249267578 C 7.321708679199219 11.27268981933594 5.771068572998047 13.57229995727539 4.688339233398438 16.13214874267578 C 3.568038940429688 18.78083992004395 3 21.59620094299316 3 24.5 C 3 27.40379905700684 3.568038940429688 30.21915054321289 4.688339233398438 32.86785125732422 C 5.771068572998047 35.42768859863281 7.321708679199219 37.72729873657227 9.297199249267578 39.70278930664062 C 11.27268981933594 41.67829132080078 13.57229995727539 43.22893142700195 16.13214874267578 44.31164932250977 C 18.78083992004395 45.43196105957031 21.59620094299316 46 24.5 46 C 27.40379905700684 46 30.21915054321289 45.43196105957031 32.86785125732422 44.31164932250977 C 35.42768859863281 43.22893142700195 37.72729873657227 41.67829132080078 39.70278930664062 39.70278930664062 C 41.67829132080078 37.72729873657227 43.22893142700195 35.42768859863281 44.31164932250977 32.86785125732422 C 45.43196105957031 30.21915054321289 46 27.40379905700684 46 24.5 C 46 21.59620094299316 45.43196105957031 18.78083992004395 44.31164932250977 16.13214874267578 C 43.22893142700195 13.57229995727539 41.67829132080078 11.27268981933594 39.70278930664062 9.297199249267578 C 37.72729873657227 7.321708679199219 35.42768859863281 5.771068572998047 32.86785125732422 4.688339233398438 C 30.21915054321289 3.568038940429688 27.40379905700684 3 24.5 3 M 24.5 0 C 38.03096771240234 0 49 10.96902084350586 49 24.5 C 49 38.03096771240234 38.03096771240234 49 24.5 49 C 10.96902084350586 49 0 38.03096771240234 0 24.5 C 0 10.96902084350586 10.96902084350586 0 24.5 0 Z" stroke="none" fill="#e90029"/>
        </g>
      </g>
      <path id="Icon_Arrow" data-name="Icon | Arrow" d="M9.349,9.1,13.9,4.55H0m13.9,0L9.349,0" transform="translate(1532.5 363.5) rotate(-90)" fill="none" stroke="#071b31" stroke-linecap="round" stroke-linejoin="round" stroke-width="2"/>
    </g>
    <path id="Icon_Arrow-2" data-name="Icon | Arrow" d="M23.35,10.1,27.9,5.55H14m13.9,0L23.35,1" transform="translate(1445.502 1699.601) rotate(180)" fill="none" stroke="#071b31" stroke-linecap="round" stroke-linejoin="round" stroke-width="2" opacity="0.4"/>
  </g>
</svg>
