<svg id="KU_Logo" data-name="KU Logo" xmlns="http://www.w3.org/2000/svg" width="169.015" height="170" viewBox="0 0 169.015 170">
  <path id="Path_2444" data-name="Path 2444" d="M255.075,160.064H219.839l-.3-1.384a50.1,50.1,0,0,0-97.95,0l-.3,1.384H86.06l.258-1.979a84.98,84.98,0,0,1,168.5,0Zm-32.426-3.5h28.415a81.484,81.484,0,0,0-160.993,0h28.415a53.6,53.6,0,0,1,104.163,0Z" transform="translate(-86.06 -84.23)" fill="#071b31"/>
  <path id="Path_2445" data-name="Path 2445" d="M170.86,512.771A85.011,85.011,0,0,1,86.748,440l-.288-2H121.8l.318,1.346a50.093,50.093,0,0,0,97.477,0l.318-1.346h35.344l-.288,2a85,85,0,0,1-84.112,72.771ZM90.525,441.5a81.5,81.5,0,0,0,160.667,0H222.667a53.594,53.594,0,0,1-103.614,0Z" transform="translate(-86.352 -342.771)" fill="#071b31"/>
  <circle id="Ellipse_291" data-name="Ellipse 291" cx="3.123" cy="3.123" r="3.123" transform="translate(19.293 108.424)" fill="#524f56"/>
  <path id="Path_2446" data-name="Path 2446" d="M160.063,492.766a3.413,3.413,0,1,1,3.413-3.413A3.418,3.418,0,0,1,160.063,492.766Zm0-6.242a2.83,2.83,0,1,0,2.829,2.829A2.833,2.833,0,0,0,160.063,486.524Z" transform="translate(-137.648 -377.807)" fill="#071b31"/>
  <path id="Path_2447" data-name="Path 2447" d="M619.05,490.143a3.123,3.123,0,1,1,3.123,3.122A3.121,3.121,0,0,1,619.05,490.143Z" transform="translate(-475.578 -378.596)" fill="#071b31"/>
  <path id="Path_2448" data-name="Path 2448" d="M621.383,492.766a3.413,3.413,0,1,1,3.413-3.413A3.418,3.418,0,0,1,621.383,492.766Zm0-6.242a2.83,2.83,0,1,0,2.832,2.829A2.831,2.831,0,0,0,621.383,486.524Z" transform="translate(-474.789 -377.807)" fill="#071b31"/>
  <path id="Path_2449" data-name="Path 2449" d="M189.784,529.674l-7.9,6.38c-1.287,1.039-1.526,1.933-.8,2.829s1.647.851,2.934-.191l7.9-6.38,1.828,2.261-7.9,6.38a4.578,4.578,0,0,1-3.443,1.2,4.674,4.674,0,0,1-2.983-1.924,4.778,4.778,0,0,1-1.314-3.3,4.567,4.567,0,0,1,1.987-3.163l7.868-6.355Z" transform="translate(-153.317 -408.114)" fill="#071b31"/>
  <path id="Path_2450" data-name="Path 2450" d="M225.938,567.345l-3.346,9.93.032.024,6.105-7.758,2.094,1.647-8.915,11.327-2.6-2.048,3.451-10.13-.032-.024-6.242,7.93L214.39,576.6l8.915-11.327Z" transform="translate(-179.845 -435.782)" fill="#071b31"/>
  <path id="Path_2451" data-name="Path 2451" d="M275.705,597.539,269.013,610.3l-2.573-1.349,6.692-12.765Z" transform="translate(-217.884 -458.379)" fill="#071b31"/>
  <path id="Path_2452" data-name="Path 2452" d="M313.791,608.947l-1.268,10.778.057.019,5.252-9.521,2.869.907-7.5,12.748-3.561-1.125,1.187-14.743Z" transform="translate(-249.455 -467.017)" fill="#071b31"/>
  <path id="Path_2453" data-name="Path 2453" d="M368.283,622.525l-.229,2.372-5.125-.493-.326,3.376,4.824.463-.229,2.372-4.824-.463L362,634.009l5.327.511-.229,2.372-8.221-.791,1.381-14.35Z" transform="translate(-285.441 -477.059)" fill="#071b31"/>
  <path id="Path_2454" data-name="Path 2454" d="M414.7,622.191c2.2-.258,3.933.6,4.242,3.244.24,2.046-.487,3.308-1.973,3.809l.005.04c2.1.04,2.4,1.184,2.818,4.1.11.759.223,2.269.942,2.493l.013.121-3.128.366a3.685,3.685,0,0,1-.611-1.922l-.331-2.3c-.183-1.219-.829-1.712-1.874-1.591l-1.583.186.708,6.057-2.888.337-1.674-14.318Zm-.452,6.4a1.886,1.886,0,0,0,1.855-2.393,1.762,1.762,0,0,0-2.178-1.758l-1.424.167.482,4.132Z" transform="translate(-322.34 -477.349)" fill="#071b31"/>
  <path id="Path_2455" data-name="Path 2455" d="M470.59,611.831l.121.342-2.627.923c-.482-1.37-1.225-1.839-2.2-1.5a1.472,1.472,0,0,0-1.007,2.129c.347.991.878,1.276,2.059,1.351l2.417.178c2.084.145,3.206.778,3.874,2.681.991,2.818-.172,4.746-3.257,5.83a5.22,5.22,0,0,1-3.494.223,4.167,4.167,0,0,1-2.267-2.8l-.148-.42,2.743-.964.126.361c.595,1.7,1.416,1.9,2.56,1.5a1.645,1.645,0,0,0,1.05-2.253,1.719,1.719,0,0,0-1.79-1.381l-1.892-.083c-2.127-.086-3.736-.463-4.579-2.861-.9-2.571.081-4.522,2.8-5.478C467.446,608.786,469.626,609.088,470.59,611.831Z" transform="translate(-360.771 -467.893)" fill="#071b31"/>
  <path id="Path_2456" data-name="Path 2456" d="M508.04,592.61l7.1,12.547-2.53,1.432-7.1-12.547Z" transform="translate(-392.601 -455.763)" fill="#071b31"/>
  <path id="Path_2457" data-name="Path 2457" d="M535.531,562.95l1.507,1.846-2.439,1.992,7.607,9.322-2.253,1.838-7.607-9.322-2.439,1.992-1.508-1.846Z" transform="translate(-409.33 -434.087)" fill="#071b31"/>
  <path id="Path_2458" data-name="Path 2458" d="M564.614,531.074l5.529,2.019.024-.032-3.071-5.069,1.976-2.452,4.463,8.393,4.417,3.559-1.825,2.264L571.71,536.2l-9.15-2.576Z" transform="translate(-434.294 -406.747)" fill="#071b31"/>
  <path id="Path_2459" data-name="Path 2459" d="M207.011,182.342l3.8,4.345.03-.027-1.036-6.765,2.369-2.075,1.12,7.228L222,188.375l-2.46,2.154-6.129-2.5.272,1.935,2.818,3.222-2.188,1.914-9.494-10.848Z" transform="translate(-172.852 -152.627)" fill="#071b31"/>
  <path id="Path_2460" data-name="Path 2460" d="M259.734,149.53l1.158,2.081-4.5,2.5,1.647,2.964,4.234-2.355,1.157,2.083-4.234,2.355,1.884,3.389,4.676-2.6,1.157,2.083-7.217,4.014-7.007-12.6Z" transform="translate(-207.835 -131.952)" fill="#071b31"/>
  <path id="Path_2461" data-name="Path 2461" d="M303.288,130.841l3.445,4.773.038-.011.3-5.919,3.012-.923-1.012,9.454,1.661,5.424-2.781.851-1.661-5.424L300.16,131.8Z" transform="translate(-242.528 -116.773)" fill="#071b31"/>
  <path id="Path_2462" data-name="Path 2462" d="M368.763,125.754l.032.363-2.775.24c-.127-1.448-.727-2.086-1.755-1.995a1.472,1.472,0,0,0-1.5,1.812c.092,1.047.53,1.454,1.658,1.822l2.3.773c1.981.66,2.91,1.551,3.085,3.561.258,2.977-1.349,4.555-4.606,4.837a5.23,5.23,0,0,1-3.44-.654,4.174,4.174,0,0,1-1.5-3.273l-.038-.441,2.9-.25.032.382c.156,1.79.9,2.191,2.105,2.086a1.644,1.644,0,0,0,1.577-1.919,1.725,1.725,0,0,0-1.392-1.785l-1.812-.552c-2.04-.614-3.5-1.378-3.723-3.911-.237-2.716,1.2-4.361,4.078-4.608C366.473,122.023,368.513,122.857,368.763,125.754Z" transform="translate(-286.169 -111.985)" fill="#071b31"/>
  <path id="Path_2463" data-name="Path 2463" d="M418.538,123.113l-1.252,14.361-2.9-.253,1.252-14.361Z" transform="translate(-326.009 -112.461)" fill="#071b31"/>
  <path id="Path_2464" data-name="Path 2464" d="M457.5,136.265l-2.686-.74c.269-1.055.215-2.455-.953-2.775-1.149-.318-2.17.428-3.254,4.361-1.158,4.2-.875,5.6.431,5.962a2.1,2.1,0,0,0,2.35-1.76l.385-1.4-1.849-.509.568-2.065,4.536,1.249-2.065,7.494-2.065-.568.355-1.284-.038-.011a3.229,3.229,0,0,1-3.349.754c-3.192-.88-3.553-3.219-2.1-8.5,1.222-4.439,2.886-6.826,6.625-5.8C457.347,131.492,458.311,133.306,457.5,136.265Z" transform="translate(-349.8 -118.001)" fill="#071b31"/>
  <path id="Path_2465" data-name="Path 2465" d="M500.962,148.884l-2.625,4.845,2.983,1.615,2.625-4.845,2.557,1.384-6.864,12.676-2.557-1.384,3.047-5.629-2.983-1.615-3.047,5.629-2.557-1.384L498.4,147.5Z" transform="translate(-382.391 -130.469)" fill="#071b31"/>
  <path id="Path_2466" data-name="Path 2466" d="M556,184.24l-1.553,1.806-2.388-2.054-7.847,9.123-2.2-1.9,7.847-9.12-2.388-2.054,1.553-1.806Z" transform="translate(-419.276 -152.934)" fill="#071b31"/>
  <path id="Path_2467" data-name="Path 2467" d="M156.228,262.383a.874.874,0,0,1-.261-.038.942.942,0,0,1-.646-1.166A67.906,67.906,0,0,1,168.5,236.329a.942.942,0,1,1,1.448,1.206A65.96,65.96,0,0,0,157.132,261.7.942.942,0,0,1,156.228,262.383Z" transform="translate(-136.65 -195.139)" fill="#071b31"/>
  <path id="Path_2468" data-name="Path 2468" d="M603.359,262.381a.942.942,0,0,1-.9-.681,66.06,66.06,0,0,0-12.819-24.167.942.942,0,0,1,1.448-1.206,67.914,67.914,0,0,1,13.184,24.851.942.942,0,0,1-.646,1.166A1.022,1.022,0,0,1,603.359,262.381Z" transform="translate(-453.921 -195.136)" fill="#071b31"/>
  <path id="Path_2469" data-name="Path 2469" d="M410.431,360.69v26.4c0,6.2,2.716,8.977,8.681,8.977,6.5,0,8.74-2.775,8.74-8.977v-26.4h9.271v26.4c0,10.512-6.083,16.773-18.011,16.773-12.046,0-17.952-6.258-17.952-16.773v-26.4Z" transform="translate(-316.34 -286.272)" fill="#fff"/>
  <path id="Path_2470" data-name="Path 2470" d="M413.762,400.477c-6.428,0-11.427-1.68-14.862-5-3.357-3.241-5.061-7.865-5.061-13.744v-26.4a1.967,1.967,0,0,1,1.968-1.968h9.271a1.967,1.967,0,0,1,1.968,1.968v26.4c0,5.109,1.82,7.007,6.713,7.007,5.19,0,6.773-1.637,6.773-7.007v-26.4a1.967,1.967,0,0,1,1.968-1.968h9.271a1.967,1.967,0,0,1,1.968,1.968v26.4C433.741,393.648,426.46,400.477,413.762,400.477Zm-15.984-43.169v24.428c0,9.823,5.378,14.8,15.984,14.8,10.5,0,16.043-5.12,16.043-14.8V357.308H424.47v24.428c0,7.569-3.3,10.945-10.708,10.945-7.066,0-10.649-3.682-10.649-10.945V357.308Z" transform="translate(-310.991 -280.922)" fill="#071b31"/>
  <path id="Path_2471" data-name="Path 2471" d="M282.521,302.94v17.481L299,302.94h11.575L294.1,319.594l18.07,25.513H300.532l-12.7-18.956-5.314,5.373v13.583H273.25V302.94Z" transform="translate(-222.862 -244.067)" fill="#fff"/>
  <path id="Path_2472" data-name="Path 2472" d="M306.823,341.733H295.189a1.975,1.975,0,0,1-1.637-.872L282.2,323.905l-3.05,3.085v12.773a1.967,1.967,0,0,1-1.968,1.968h-9.271a1.967,1.967,0,0,1-1.968-1.968V297.6a1.967,1.967,0,0,1,1.968-1.968h9.271a1.967,1.967,0,0,1,1.968,1.968V310.12l13.074-13.871a1.965,1.965,0,0,1,1.432-.619h11.575a1.969,1.969,0,0,1,1.4,3.354l-15.314,15.478,17.117,24.165a1.968,1.968,0,0,1-1.607,3.107Zm-10.584-3.938h6.775l-15.871-22.407a1.967,1.967,0,0,1,.207-2.522l13.16-13.3H294.5L278.61,316.427a1.968,1.968,0,0,1-3.4-1.351V299.563h-5.335v38.229h5.335V326.177a1.969,1.969,0,0,1,.568-1.384l5.314-5.373a1.966,1.966,0,0,1,3.034.288Z" transform="translate(-217.519 -238.725)" fill="#071b31"/>
</svg>
