<svg xmlns="http://www.w3.org/2000/svg" xmlns:xlink="http://www.w3.org/1999/xlink" width="1355" height="411.667" viewBox="0 0 1355 411.667">
  <defs>
    <clipPath id="clip-path">
      <path id="Background" d="M155,0H1510V411.667H155Z" transform="translate(-323.649 140)" fill="#d1ecf4"/>
    </clipPath>
    <clipPath id="clip-path-2">
      <rect id="Background-2" data-name="Background" width="1403" height="919" transform="translate(0.458 0)" fill="#041120"/>
    </clipPath>
  </defs>
  <g id="PATTERN" transform="translate(168.649 -140)">
    <g id="Mask_Group_94" data-name="Mask Group 94" clip-path="url(#clip-path)">
      <g id="Mask_Group_58" data-name="Mask Group 58" transform="translate(-185.108 -50)" opacity="0.61" clip-path="url(#clip-path-2)">
        <path id="Pattern-2" data-name="Pattern" d="M0,370.575V0H1439.518V917.317H0V370.575q40.6,9,98.984,47.937t148.268,51.1q69.055,9.37,140.471-5.76,71.4-15.148,128.22-46.29a609.914,609.914,0,0,1,120.563-52.309q47.053-14.624,103.578-19.5,70.283-6.3,146.458,9.5,128.83,26.923,280.107,25.2,142.27-1.657,272.868-20.008M1170.827,917.317q-49.592-5.711-110.818-16.464-82.136-14.86-174.023-3.166a336.969,336.969,0,0,0-83.531,19.631m457.193,0Q1189.34,911.238,1110.963,893,995.4,866.346,874.292,883.251q-75.571,7.561-130.308,34.066m695.535-50.151A379.338,379.338,0,0,1,1355.43,894.9q-65.714,11.816-136.434.76-47.379-7.432-110.539-20.264Q965.2,846.492,814.428,876.412,746.951,889.7,692.751,917.317m746.767-94.1a396.808,396.808,0,0,1-118.614,23.43q-98.575,3.23-188.78-15.7A936.457,936.457,0,0,0,947.8,810.932q-112.391,3.1-182.515,25.206-70.141,22.071-116.247,46.29-46.092,24.244-73.786,34.889m864.268-114.995q-61.7,12.645-136.434,11.018-105.917-3.5-182.376-17.857-153.112-28.078-309.9,0-102.785,18.169-187.666,65.731-61.27,34.4-133.371,56.1m949.748-104.23q-55.147,17.831-135.042,16.209-96.412-.711-185.439-19.755Q967.863,783.75,843.8,804.283,719.784,824.807,629.546,874.89a522.8,522.8,0,0,1-97.453,42.427m-296.953,0a307.9,307.9,0,0,1-53.877-27.734q-40.011-25.6-76.013-53.955A393.511,393.511,0,0,0,0,783.2M97.592,917.317q-18.009-13.781-38.285-31.533A182.214,182.214,0,0,0,0,851.272m32.716,66.045a119.556,119.556,0,0,1-12.669-13.422Q13.432,895.68,0,889.771m67.382,27.546A388.764,388.764,0,0,1,32.3,888.95Q20.5,878.3,0,870.4m167.341,46.921Q131.915,896,88.543,864.124A283.316,283.316,0,0,0,0,819.863m134.067,97.454a610.18,610.18,0,0,1-58.89-44.2Q36.8,845.14,0,833.729m197.969,83.588a660.243,660.243,0,0,1-87.986-58.892A419.458,419.458,0,0,0,0,800.929M303.635,917.317q-47.7-7.181-80.329-24.187Q156.59,855.7,108.312,818.28,57.6,781.657,0,765.594m1439.518,5.443q-109.718,21.691-257.554-3.924-143.556-24.674-292.915-9.245Q755.023,768.761,654.327,817.52q-75.8,37.873-159.266,69.657-60.61,22.329-133.65,20.008-101.883-6.862-150.356-39.765-47.721-32.17-90.492-64.844Q63.712,761.8,0,742.417m1439.518,46.668q-59.867,10.126-125.854,8.171a1188.721,1188.721,0,0,1-179.035-17.731q-109.676-19.005-249.758-6.966-121.905,11.083-217.459,52.433-59.867,24.32-120.006,55.346a371.943,371.943,0,0,1-108.451,36.979M1439.518,727.343a1227.86,1227.86,0,0,1-204.651-9.116q-225.525-29.435-434.361,13.8A551.31,551.31,0,0,0,656.554,783.2q-77.659,42.9-161.215,59.652-75.4,14.936-140.611,5.953-93.6-17.223-149.521-58.512L127.8,739.884Q71.9,703.493,0,688.528m1439.518,69.844q-99.719,11.376-212.03-4.433-129.439-18.211-229.014-17.1-150.857-1.326-280.943,44.2-72.755,29.605-145.065,63.325-97,45.214-193.235,43.818-106.46-4.487-157.874-39.639-51.447-35.13-123.765-83.018Q54.2,736.784,0,723.483m1439.518-12.095q-94.148,3.059-199.361-9.119-99.677-8.86-199.361-12.287-171.155-4.624-292.359,40.15Q678.9,755.87,600.867,795.863q-99.845,45.518-199.082,39.388-80.841-5.266-131.422-31.662A1251.859,1251.859,0,0,1,156.2,733.3Q92.461,689.346,0,668.074M1439.518,539.145q-119.909,7.85-246.973,4.18-97.339-4.829-206.321-14.311-134.284-10.977-240.848,36.852Q672.11,600.255,610.334,625.14q-94.891,37.387-203.12,24.947-5.563-.623-26.173-3.86-20.624-3.264-61.117-17.987-40.538-14.7-121.955-68.325Q128.671,514.212,0,493.805M1439.518,602.343q-157.6,3.131-315.19-6.459Q910.188,575.8,820.832,608.8q-79.864,29.643-147.85,62.058Q576.211,717.248,455.8,717.594q-108.231-3.674-172.909-49.9Q240.884,637.5,181.541,607.916,97.525,568.88,0,556.306m1439.518,26.47q-106.653,3.2-218.573-.823-102.016-3.731-223.306-11.778-137.333-9.829-230.546,37.362-68.462,33.8-133.371,59.525-84.392,33.667-178.757,31.786-108.916-1.288-165.391-41.794a972.077,972.077,0,0,0-89.378-58A608.971,608.971,0,0,0,0,534.079m1439.518,26.47q-160.471,8.4-302.661-1.773-79.981-7.9-155.925-10.892-122.056-4.575-218.016,36.222L614.232,644.9Q517.9,684.416,420.44,674.66q-105.1-10.437-167.619-61.171-40.095-30.821-80.19-50.156Q86.318,525.688,0,511.789M1439.518,676.94q-153.906-1.254-300.433-15.324-180.97-13.3-331.9,23.177a515.893,515.893,0,0,0-127.524,47.24q-84.216,44.275-165.113,58.892-95.409,14.932-174.441-7.662-79.054-22.588-114.159-51.546Q190.86,702.729,167.9,691.882,85.06,647.724,0,634.573m1439.518,25.776q-170.111-1.725-322.987-14.945-138.486-10.175-242.379,8.3Q770.24,672.172,701.939,707.969q-84.132,47.725-191.286,64.718-118.906,12.154-189.337-16.214-70.392-28.344-107.477-60.916Q177.8,664.01,123.9,645.151A538.5,538.5,0,0,0,0,614.755M1439.518,742.987q-40,3.446-104.135.821-81.551-3.336-225.673-18.235-144.216-14.894-335.1,25.2Q699.8,768.5,627.875,808.148a522.513,522.513,0,0,1-212.447,61.8q-76.949,2.8-139.5-20.77-64.444-23.811-112.767-64.971Q97.308,733.842,0,708.029m1439.518-12.852q-138.152-2.523-281.5-15.831-159.636-14.932-313.8,12.536-108.515,19.746-195.741,68.646-61.8,34.723-134.763,47.238-88.067,14.522-163.721,0-70.058-14.556-110.818-42.172-40.822-27.641-109.565-70.733Q78.149,662.6,0,650.027m1439.518-7.282q-176.994-.631-360.576-15.831-166.9-12.7-286.233,28.116a500.223,500.223,0,0,0-81.582,33.686q-55.69,28.986-101.072,44.836-87.85,30.563-186.831,21.784-111.806-9.8-160.658-49.522-46.451-41.308-136.573-79.85A418.037,418.037,0,0,0,0,594.238m1439.518,28.62q-121.379-.8-246.417-4.683-62.682-2.2-128.081-8.232-169.1-12.356-279.272,29.256Q713.77,666.482,641.8,701q-90.748,39.146-187.388,37.235-126.24-4.9-180.705-51.926-41.874-35.415-116.665-69.53Q92.051,587.134,0,575.747M1439.518,384.633A1799.481,1799.481,0,0,1,1238.765,404.9q-94.432,4.217-197.969-5.193-75.036-6.364-158.152-21.657-129.908-23.842-248.922,22.541a1131.473,1131.473,0,0,0-116.108,53.068q-80.95,42.854-198.8,42.552-115.532-.087-201.31-55.6Q43.993,393.055,0,377.919M1439.518,516.6a1716.153,1716.153,0,0,1-221.635,4.559q-120.318-4.126-242.24-15.7-129.231-12.39-231.938,34.7L626.2,591.2Q525.19,634.985,430.742,630.457q-104.389-5.471-165.67-44.327a1256.2,1256.2,0,0,0-116.665-66.995A502.337,502.337,0,0,0,0,470.628m1439.518,24q-90.849,8.686-190.172,8.549A1892.864,1892.864,0,0,1,989.565,484.56Q839.459,463.355,699.99,526.6,629.9,558.63,569.125,580.94q-85.344,29.822-170.682,24.187-89-6.7-158.152-47.364L136.713,499.884A445.95,445.95,0,0,0,0,450.048m1439.518,15.958A1845.464,1845.464,0,0,1,1231.8,479.367Q1114.31,480.393,984,459.736q-139.522-22.478-253.378,19.757a1166.3,1166.3,0,0,0-144.23,64.465Q509.5,581.352,413.2,578.531q-112.383-3.245-176.807-37.362Q184.6,513.49,140.332,485.953,67.769,441.168,0,428.261m1439.518,15.388q-87.348,9.856-179.87,13.427Q1132.063,460.823,984.135,437q-147.95-23.827-277.462,16.4-67.485,24.529-147.85,62.435-80.39,37.877-186,36.1-105.625-1.752-179.87-45.594-37.864-22.253-88.821-52.684Q50.4,421.593,0,407.048m1439.518,7.916q-85.945,11.379-177.643,15.9-149.554,8.063-271.2-15.831a1054.222,1054.222,0,0,0-136.434-16.847q-107.9-4.369-205.208,35.844-57.912,23.956-113.6,52.05-75.729,38.1-183.768,37.491-101.29-.616-174.3-37.868a532.251,532.251,0,0,1-60.421-36.475Q58.472,408.019,0,389.634m1439.518-101q-83.447,13.416-166.505,24.826-112.04,15.563-235.836,6.459a1839.9,1839.9,0,0,1-209.106-33.945Q711,260.443,603.373,290.4q-88.752,24.108-161.493,66.747-73.8,43.06-178.2,47.62-98.742,2.777-147.85-21.53L36.475,343.853Q17.129,335.083,0,333.341m1439.518-22.8q-127.8,19.476-255.6,28.369-127.928,9.928-246.973-11.781-39.786-7.044-93.555-20.9-106.9-26.387-216.9,4.559-77.959,18.553-155.925,62.565-66.549,37.615-158.152,50.153-126.7,12.694-199.361-26.34L47.334,360.317Q20.036,346.844,0,342.457m1439.518-6.71q-106.644,14.088-213.283,21.781-134.351,11.79-260.06-7.343-54.972-7.553-125.853-22.8-116.9-20.734-209.941,8.486a933.155,933.155,0,0,0-167.9,71.43Q359.757,458,224.7,443.905q-85.461-8.731-134.206-43.19Q43.155,366.159,0,356.771M1439.518,850.322a384.49,384.49,0,0,1-77.127,26.6,405.515,405.515,0,0,1-131.979,4.559q-63.934-9.229-132.814-25.586-151.108-27-265.907-2.277-114.764,24.7-185.16,63.7m792.988-82.193a269.845,269.845,0,0,1-77.406,24.567q-68.52,10.6-145.065-1.391l-140.332-22.673q-152.027-24.248-263.4,3.8Q694.9,867.783,613.4,917.317m826.122-15.955q-17.308,12.082-43.158,15.955m-315.191,0a716.865,716.865,0,0,0-106.641-11.269,410.324,410.324,0,0,0-94.112,11.269m559.1-31.913q-46.034,30.384-118.057,31.913M1439.518,92.58a648.436,648.436,0,0,1-134.485,33.813,579.508,579.508,0,0,1-152.3,4.56Q1097.7,125.375,1030.216,88.4a511.91,511.91,0,0,0-90.492-37.235,424.238,424.238,0,0,0-182.1-16.082q-71.77,6.71-144.508,36.6a424.562,424.562,0,0,0-85.341,47.684,282.381,282.381,0,0,1-76.152,36.282q-72.288,21.82-142.56,21.026-92.786-1.109-161.215-28.119Q49.626,109.818,0,58.259M1439.518,115.5q-34.106,12.086-98.706,25.71-64.644,13.606-148.546,17.1-109.685,1.463-167.9-31.029-31.316-17.5-82.974-36.984A461.464,461.464,0,0,0,785.47,66.744Q697,69.552,620.914,96.887q-46.276,17.375-95.225,49.9-51.923,34.64-117.222,49.583-65.254,14.917-150.078,12.665Q173.605,206.8,0,104.612m1439.518,63.325a1238.932,1238.932,0,0,1-169.846,35.713q-108.206,13.944-189.894,5.322-98.934-11.695-155.368-37.617-49.768-20.988-131.979-33.435a392.766,392.766,0,0,0-113.6,0q-62.673,12.029-112.767,37.491-34.49,17.337-76.013,39.388Q418.3,252.655,343.034,265.583q-85.678,15.285-159.544.38Q72.886,243.037,0,185.794m1439.518-7.348q-72.413,23.473-159.823,36.477a968.166,968.166,0,0,1-179.592,9.5q-83.172-1.862-151.748-24.95a795.046,795.046,0,0,0-104.971-33.691,547.76,547.76,0,0,0-129.751-13.8q-57.085.745-114.159,22.541-61.963,23.063-126.689,61.174-61.621,36.346-129.751,46.6-108.315,15.924-190.729-5.193Q59.811,249.78,0,205.549m1439.518-49.266q-94.031,22.371-190.729,35.844-104.506,14.6-199.639-1.142-45.274-7.424-96.9-27.354-42.158-17.337-87.429-30.905-92.7-27.584-196.019-5.573-74.66,14.651-173.466,72.256Q396.489,257,272.868,259.5,137.648,261.6,0,167.048m1439.518-39.894q-48.991,17.189-123.348,31.285-111.714,20.589-216.345,9.75-71.536-9.294-117.5-34.953Q946.708,113.17,877.633,96.38,820.347,82.512,753.172,85.359q-80.048,1.2-160.1,36.095-29.628,11.417-75.457,40.718A334.513,334.513,0,0,1,455.8,193.14q-95.326,36.38-194.627,30.522Q158.472,222.378,0,123.61m1439.518,17.6A865.407,865.407,0,0,1,1307.539,172.5q-93.279,12.812-172.352,11.715-79-1.083-136.156-26.472-57.185-25.411-105.528-41.6-85.185-28.678-184.325-14.058-94.992,14.161-166.784,54.077-34.331,19.017-72.95,40.277-85.076,46.821-198.8,44.7Q114.053,235.191,0,147.04M0,41.414q64.519,58.307,157.874,94.227,70.341,27.254,164.278,26.974a389.252,389.252,0,0,0,154.532-29.763q50.6-21.174,82.417-42.045A479.327,479.327,0,0,1,673.539,35.966Q756.585,9.4,848.954,15.7q85.319,10.574,142.56,39.96,57.185,29.419,128.22,50.467,71.093,21.03,179.174,11.4a782.677,782.677,0,0,0,140.611-34.7M0,84.222q52.984,39.5,125.854,72.443,93.346,41.642,214.675,34.069,100.2-3.754,143.673-34.069,39.828-25.578,74.621-45.721A472.162,472.162,0,0,1,676.6,62.818q72.521-18.99,141.167-14.058,90.43,6.911,159.266,32.549,38.007,14.206,77.962,33.813,80.457,39.283,189.894,28.5,97.314-6.581,194.627-37.233m0,88.525a1445.984,1445.984,0,0,1-213.839,39.261q-106.034,12.1-204.094-2.4-73-9.639-132.536-33.309Q810.7,167.243,720.595,170.976q-95.267,2.88-171.517,40.905Q486.128,243.383,427.4,269,317.724,310.81,223.306,305.858,71.865,294.638,0,226.829m1439.518-12.665q-100.287,20.388-198.247,31.28-129.557,13.952-234.722,0-81.234-12.2-145.623-34.953-62.189-19.332-135.042-19.251-82.4-.878-154.254,23.683-64.419,25.749-151.052,71.808Q333.907,332.8,214.953,322.7,69.626,308.269,0,251.4m1439.518-3.546q-99.836,17.785-189.615,29.762-139.321,19.18-245.164,1.963T805.8,240.5q-93.154-21.874-193.514,1.9-74.9,18.188-146.179,61.3Q354.3,371.447,230.546,365,79.981,356.325,0,294.2M1439.518,45.971q-35.325,22.6-104.971,30.522a654,654,0,0,1-131.422.129q-78.01-7.515-144.509-40.4-13.908-7.1-49.283-24.19A123.374,123.374,0,0,0,967.011,0m472.507,73.077q-84.2,31.824-169.289,35.713-109.016,4.388-207.992-37.612Q1025.149,55.4,1000.145,40.4,966.524,22.131,898.237,7.092A539.816,539.816,0,0,0,824.312,0m615.206,63.2q-26.479,13.754-77.127,22.8-68.771,11.433-145.065,6.462-61.88-4.487-129.473-29.892-35.2-12.99-82.974-37.361Q963.79,3.661,912.159,0m527.359,30.523q-28.375,21.353-80.19,27.356-82.286,10.3-172.352,0-59.675-4.639-119.171-30.4A498.609,498.609,0,0,1,1014.9,0m347.489,0q-37.656,15.2-89.1,13.551Q1222.638,12.138,1179.458,0m260.06,15.325q-35.091,23.462-84.645,30.013-81.109,10.357-157.038.633Q1099.544,33.5,1049.707,0m389.811,0q-34.365,23.162-96.339,31.916a631.713,631.713,0,0,1-152.3,0Q1118.812,23.61,1082.005,0m321.316,0q-29.478,17.8-89.657,22.8a715.177,715.177,0,0,1-128.916-4.562Q1147.151,12,1124.606,0m314.912,227.839q-105.792,24.97-222.471,36.728-205.219,21.543-354.171-31.029-118.639-40.521-240.291-13.425-99.16,22.272-179.313,72.823-97.055,53.709-209.941,49.776Q72.558,337.222,0,273.562m1439.518-7.095q-130.233,22.4-257.832,34.829-168.34,16.383-312.128-28.114-146.839-43.318-281.778-3.926-81.1,25.164-162.746,73.834-81.618,48.683-190.172,40.718Q126.346,375.859,62.37,345.879,24.764,328.466,0,310.035M711.406,0Q649.159,12.591,606.157,35.839a883.023,883.023,0,0,0-79.076,48.066q-36.219,24.788-102.186,37.931Q355,135.427,279.272,129.56q-69.548-5.9-130.308-32.3Q61.315,59.17,0,13.551M783.243,0Q698.952,6.581,646.252,30.206a604.66,604.66,0,0,0-96.9,54.269q-44.238,30.609-110.539,48.633-72.138,19.29-155.925,13.425-83.731-5.889-156.2-40.654A673.057,673.057,0,0,1,0,27.1M664.907,0q-42.734,8.211-72.95,30.4-23.723,17.269-69.331,39.449-45.591,22.2-112.489,36.161-87.106,15.616-172.074-.253Q163.629,92.241,103.579,61.169,45.549,31.237,9.467,0M573.858,0Q547.671,20.2,497.01,43.061q-58.9,26.425-126.132,34.2Q292.091,86.515,221.914,71.3,114.51,48.652,59.585,0M619.522,0Q597.1,3.024,573.58,18.617q-23.614,15.821-63.205,37.868Q457.09,85.681,376.168,95.491q-92.193,8.557-156.76-8.359-88.543-21.213-142-53.826Q47.827,15.749,38.146,0M502.857,0Q480.8,19.651,418.769,33.689A764.138,764.138,0,0,1,274.26,47.364q-60.869-1.512-111.1-18.235-36.085-14-46.5-29.129M544.622,0Q499.2,31.623,435.754,46.987q-80,19.347-167.619,13.425-68.253-3.826-118.892-21.784Q103.208,19.843,80.468,0M461.091,0q-34.866,20.669-86.315,28.5A460.144,460.144,0,0,1,243.354,30.14Q176.5,21.576,147.572,0m220.8,0q-20.039,7.941-60.7,7.852-41.54-.281-50.4-7.852M423.224,0Q384.165,18.864,319.645,20.517,230.643,23.268,192.4,0" transform="translate(1425.903 918.808) rotate(180)" fill="none" stroke="#071b31" stroke-linecap="round" stroke-linejoin="round" stroke-width="2" opacity="0.1"/>
      </g>
    </g>
  </g>
</svg>
