<svg xmlns="http://www.w3.org/2000/svg" width="23.843" height="23.474" viewBox="0 0 23.843 23.474">
  <path id="Icon_Discover" data-name="Icon | Discover" d="M1.443,1.443h8.28V9.76H1.443ZM10.2,17.854a4.544,4.544,0,0,1-4.62,4.619,4.425,4.425,0,0,1-3.252-1.33A4.547,4.547,0,0,1,1,17.854,4.427,4.427,0,0,1,2.33,14.6a4.425,4.425,0,0,1,3.252-1.33,4.549,4.549,0,0,1,3.29,1.33A4.427,4.427,0,0,1,10.2,17.854ZM18.224,1l4.619,4.62L18.224,10.24,13.64,5.62ZM14.085,13.6h8.279V21.92H14.085Z" fill="none" stroke="#fff" stroke-linecap="round" stroke-linejoin="round" stroke-width="2"/>
</svg>
