<svg xmlns="http://www.w3.org/2000/svg" width="24.747" height="29.942" viewBox="0 0 24.747 29.942">
  <path id="Icon_My_Uni" data-name="Icon | My Uni" d="M17.189,6.286a4.968,4.968,0,0,1-1.553,3.7A5.089,5.089,0,0,1,11.9,11.533,5.087,5.087,0,0,1,8.17,9.982a5.028,5.028,0,0,1-1.516-3.7A5.152,5.152,0,0,1,8.17,2.553,5.088,5.088,0,0,1,11.9,1a5.09,5.09,0,0,1,3.733,1.553A5.09,5.09,0,0,1,17.189,6.286ZM6.877,14.713,1,23.546m5.877-8.834H17.484l5.877,8.834-11.2,5.4L1,23.546" transform="translate(0.386)" fill="none" stroke="#fff" stroke-linecap="round" stroke-linejoin="round" stroke-width="2"/>
</svg>
