<svg xmlns="http://www.w3.org/2000/svg" width="17.337" height="17.327" viewBox="0 0 17.337 17.327">
  <g id="SEARCH" transform="translate(-222.327 55)">
    <g id="Icon_Search_Small" data-name="Icon | Search Small" transform="translate(223.327 -54)">
      <path id="Icon_Search_Small-2" data-name="Icon | Search Small" d="M15.946,15.954,11,11.137a5.746,5.746,0,0,1-4,1.523,5.956,5.956,0,0,1-4.259-1.7A5.58,5.58,0,0,1,1.022,6.851,5.7,5.7,0,0,1,2.733,2.706,6.023,6.023,0,0,1,6.992,1.041a5.774,5.774,0,0,1,4.186,1.665,5.583,5.583,0,0,1,1.784,4.144,5.471,5.471,0,0,1-1.784,4.109.648.648,0,0,1-.182.177" transform="translate(-1.022 -1.041)" fill="none" stroke="#fafafa" stroke-linecap="round" stroke-linejoin="round" stroke-width="2"/>
    </g>
  </g>
</svg>
